<?xml version="1.0" encoding="UTF-8"?>
<svg version="1.1" xmlns="http://www.w3.org/2000/svg" width="727" height="701">
<path d="M0 0 C2.97312448 1.30510088 4.78794548 3.19748994 7.09443665 5.48152161 C7.574552 5.95316742 8.05466736 6.42481323 8.54933167 6.91075134 C10.13109491 8.46914944 11.70144436 10.03847149 13.27095032 11.60920715 C14.36592681 12.69708381 15.46120182 13.78466009 16.5567627 14.87194824 C18.84911916 17.15086247 21.13545391 19.43562568 23.41816711 21.72419739 C26.3482617 24.66019984 29.29622307 27.57751124 32.24937916 30.49029255 C34.51503753 32.73014566 36.76917088 34.98132311 39.02013206 37.23593712 C40.10269293 38.31680123 41.18925751 39.39367036 42.27980995 40.46647072 C43.80049591 41.96509987 45.3045545 43.47865856 46.80537415 44.99714661 C47.66600967 45.85572769 48.5266452 46.71430878 49.4133606 47.59890747 C51.12641907 49.9334259 51.12641907 49.9334259 51.18074036 51.93144226 C49.70802748 54.72788308 47.80345042 56.65443615 45.57832336 58.90144348 C45.10667755 59.38155884 44.63503174 59.86167419 44.14909363 60.3563385 C42.59069553 61.93810175 41.02137348 63.5084512 39.45063782 65.07795715 C38.36276116 66.17293365 37.27518488 67.26820866 36.18789673 68.36376953 C33.9089825 70.65612599 31.62421929 72.94246074 29.33564758 75.22517395 C26.39964513 78.15526854 23.48233373 81.10322991 20.56955242 84.05638599 C18.32969932 86.32204437 16.07852186 88.57617771 13.82390785 90.8271389 C12.74304374 91.90969976 11.66617462 92.99626434 10.59337425 94.08681679 C9.0947451 95.60750274 7.58118641 97.11156133 6.06269836 98.61238098 C5.20411728 99.47301651 4.34553619 100.33365204 3.4609375 101.22036743 C1.12641907 102.9334259 1.12641907 102.9334259 -1.07913208 102.78517151 C-3.18458358 101.78580669 -4.48464501 100.6640299 -6.10795593 98.99201965 C-6.96840515 98.11706848 -6.96840515 98.11706848 -7.84623718 97.22444153 C-8.43276062 96.61278137 -9.01928406 96.00112122 -9.62358093 95.3709259 C-10.52656921 94.44763489 -10.52656921 94.44763489 -11.44779968 93.50569153 C-12.92992474 91.98827778 -14.40267763 90.46171994 -15.87358093 88.9334259 C-14.5124508 85.88761104 -12.98027998 83.79503564 -10.61723328 81.45002747 C-9.62643265 80.45945343 -9.62643265 80.45945343 -8.61561584 79.4488678 C-7.9041037 78.74767822 -7.19259155 78.04648865 -6.45951843 77.3240509 C-5.72987885 76.59724121 -5.00023926 75.87043152 -4.24848938 75.12159729 C-1.91984213 72.80413393 0.41566733 70.4937264 2.75141907 68.1834259 C4.33260559 66.61227147 5.91334031 65.0406622 7.49360657 63.46858215 C11.36598597 59.61823938 15.24402078 55.77366474 19.12641907 51.9334259 C15.01312036 47.02868689 10.74099446 42.4114731 6.19673157 37.90608215 C5.56153595 37.27230148 4.92634033 36.63852081 4.27189636 35.98553467 C2.26743191 33.98661184 0.25949693 31.99121807 -1.74858093 29.9959259 C-3.11860482 28.63092457 -4.48839867 27.2656923 -5.85795593 25.90022278 C-9.19384637 22.5752838 -12.53285129 19.25350237 -15.87358093 15.9334259 C-13.92771763 11.70445436 -11.24082145 8.89815463 -7.99858093 5.6209259 C-7.46877625 5.05825012 -6.93897156 4.49557434 -6.39311218 3.91584778 C-2.44430275 -0.0868536 -2.44430275 -0.0868536 0 0 Z " fill="#CED679" transform="translate(449.8735809326172,421.0665740966797)"/>
<path d="M0 0 C3.74184754 1.5597899 6.10902778 3.86732173 8.95214844 6.72509766 C9.4306575 7.20331467 9.90916656 7.68153168 10.4021759 8.17424011 C11.97603195 9.74948483 13.54269293 11.33168535 15.109375 12.9140625 C16.20181286 14.01023213 17.29469434 15.10595981 18.38800049 16.20126343 C21.25951242 19.08039888 24.12496654 21.96549056 26.98919678 24.85186768 C29.91494126 27.79809815 32.84638014 30.73865069 35.77734375 33.6796875 C41.52381482 39.44758588 47.26389806 45.22178964 53 51 C51.4402101 54.74184754 49.13267827 57.10902778 46.27490234 59.95214844 C45.79668533 60.4306575 45.31846832 60.90916656 44.82575989 61.4021759 C43.25051517 62.97603195 41.66831465 64.54269293 40.0859375 66.109375 C38.98976787 67.20181286 37.89404019 68.29469434 36.79873657 69.38800049 C33.91960112 72.25951242 31.03450944 75.12496654 28.14813232 77.98919678 C25.20190185 80.91494126 22.26134931 83.84638014 19.3203125 86.77734375 C13.55241412 92.52381482 7.77821036 98.26389806 2 104 C-0.79570164 102.65272739 -2.83967803 101.40293767 -5.015625 99.1796875 C-5.80839844 98.37724609 -5.80839844 98.37724609 -6.6171875 97.55859375 C-7.15601563 97.00300781 -7.69484375 96.44742188 -8.25 95.875 C-8.80429687 95.31167969 -9.35859375 94.74835938 -9.9296875 94.16796875 C-11.29104485 92.78313972 -12.64614859 91.39216796 -14 90 C-12.63886987 86.95418514 -11.10669904 84.86160974 -8.74365234 82.51660156 C-7.75285172 81.52602753 -7.75285172 81.52602753 -6.74203491 80.51544189 C-6.03052277 79.81425232 -5.31901062 79.11306274 -4.5859375 78.390625 C-3.85629791 77.66381531 -3.12665833 76.93700562 -2.37490845 76.18817139 C-0.0462612 73.87070802 2.28924826 71.5603005 4.625 69.25 C6.20618653 67.67884556 7.78692125 66.10723629 9.3671875 64.53515625 C13.2395669 60.68481347 17.11760171 56.84023883 21 53 C16.90173716 48.09495872 12.63068778 43.55085795 8.03515625 39.11328125 C6.72793518 37.83327481 5.42131111 36.55265844 4.11523438 35.27148438 C2.07760177 33.27734762 0.0364773 31.28738255 -2.01489258 29.30737305 C-4.00959328 27.37894933 -5.98827086 25.43525769 -7.96484375 23.48828125 C-8.89586159 22.60067863 -8.89586159 22.60067863 -9.84568787 21.69514465 C-11.54663086 20.00512695 -11.54663086 20.00512695 -14 17 C-13.57624996 13.66600029 -12.4436898 12.08125223 -10.05859375 9.765625 C-9.18364258 8.90517578 -9.18364258 8.90517578 -8.29101562 8.02734375 C-7.67935547 7.44082031 -7.06769531 6.85429688 -6.4375 6.25 C-5.82197266 5.64800781 -5.20644531 5.04601562 -4.57226562 4.42578125 C-3.05485187 2.94365619 -1.52829404 1.4709033 0 0 Z " fill="#D0D760" transform="translate(612,584)"/>
<path d="M0 0 C3.74184754 1.5597899 6.10902778 3.86732173 8.95214844 6.72509766 C9.4306575 7.20331467 9.90916656 7.68153168 10.4021759 8.17424011 C11.97603195 9.74948483 13.54269293 11.33168535 15.109375 12.9140625 C16.20181286 14.01023213 17.29469434 15.10595981 18.38800049 16.20126343 C21.25951242 19.08039888 24.12496654 21.96549056 26.98919678 24.85186768 C29.91494126 27.79809815 32.84638014 30.73865069 35.77734375 33.6796875 C41.52381482 39.44758588 47.26389806 45.22178964 53 51 C51.4402101 54.74184754 49.13267827 57.10902778 46.27490234 59.95214844 C45.79668533 60.4306575 45.31846832 60.90916656 44.82575989 61.4021759 C43.25051517 62.97603195 41.66831465 64.54269293 40.0859375 66.109375 C38.98976787 67.20181286 37.89404019 68.29469434 36.79873657 69.38800049 C33.91960112 72.25951242 31.03450944 75.12496654 28.14813232 77.98919678 C25.20190185 80.91494126 22.26134931 83.84638014 19.3203125 86.77734375 C13.55241412 92.52381482 7.77821036 98.26389806 2 104 C-0.79570164 102.65272739 -2.83967803 101.40293767 -5.015625 99.1796875 C-5.80839844 98.37724609 -5.80839844 98.37724609 -6.6171875 97.55859375 C-7.15601562 97.00300781 -7.69484375 96.44742188 -8.25 95.875 C-8.80429688 95.31167969 -9.35859375 94.74835938 -9.9296875 94.16796875 C-11.29104485 92.78313972 -12.64614859 91.39216796 -14 90 C-12.63886987 86.95418514 -11.10669904 84.86160974 -8.74365234 82.51660156 C-7.75285172 81.52602753 -7.75285172 81.52602753 -6.74203491 80.51544189 C-6.03052277 79.81425232 -5.31901062 79.11306274 -4.5859375 78.390625 C-3.85629791 77.66381531 -3.12665833 76.93700562 -2.37490845 76.18817139 C-0.0462612 73.87070802 2.28924826 71.5603005 4.625 69.25 C6.20618653 67.67884556 7.78692125 66.10723629 9.3671875 64.53515625 C13.2395669 60.68481347 17.11760171 56.84023883 21 53 C16.90173716 48.09495872 12.63068778 43.55085795 8.03515625 39.11328125 C6.72793518 37.83327481 5.42131111 36.55265844 4.11523438 35.27148438 C2.07760177 33.27734762 0.0364773 31.28738255 -2.01489258 29.30737305 C-4.00959328 27.37894933 -5.98827086 25.43525769 -7.96484375 23.48828125 C-8.89586159 22.60067863 -8.89586159 22.60067863 -9.84568787 21.69514465 C-11.54663086 20.00512695 -11.54663086 20.00512695 -14 17 C-13.57624996 13.66600029 -12.4436898 12.08125223 -10.05859375 9.765625 C-9.18364258 8.90517578 -9.18364258 8.90517578 -8.29101562 8.02734375 C-7.67935547 7.44082031 -7.06769531 6.85429688 -6.4375 6.25 C-5.82197266 5.64800781 -5.20644531 5.04601562 -4.57226562 4.42578125 C-3.05485187 2.94365619 -1.52829404 1.4709033 0 0 Z " fill="#7F868E" transform="translate(121,584)"/>
<path d="M0 0 C2.79570164 1.34727261 4.83967803 2.59706233 7.015625 4.8203125 C7.54414063 5.35527344 8.07265625 5.89023437 8.6171875 6.44140625 C9.15601563 6.99699219 9.69484375 7.55257813 10.25 8.125 C11.08144531 8.96998047 11.08144531 8.96998047 11.9296875 9.83203125 C13.29104485 11.21686028 14.64614859 12.60783204 16 14 C14.63886987 17.04581486 13.10669904 19.13839026 10.74365234 21.48339844 C10.08311859 22.14378113 9.42258484 22.80416382 8.74203491 23.48455811 C8.03052277 24.18574768 7.31901062 24.88693726 6.5859375 25.609375 C5.85629791 26.33618469 5.12665833 27.06299438 4.37490845 27.81182861 C2.0462612 30.12929198 -0.28924826 32.4396995 -2.625 34.75 C-4.20618653 36.32115444 -5.78692125 37.89276371 -7.3671875 39.46484375 C-11.2395669 43.31518653 -15.11760171 47.15976117 -19 51 C-14.90173716 55.90504128 -10.63068778 60.44914205 -6.03515625 64.88671875 C-4.72793518 66.16672519 -3.42131111 67.44734156 -2.11523438 68.72851562 C-0.07760177 70.72265238 1.9635227 72.71261745 4.01489258 74.69262695 C6.00959328 76.62105067 7.98827086 78.56474231 9.96484375 80.51171875 C10.89586159 81.39932137 10.89586159 81.39932137 11.84568787 82.30485535 C13.54663086 83.99487305 13.54663086 83.99487305 16 87 C15.57624996 90.33399971 14.4436898 91.91874777 12.05859375 94.234375 C11.47529297 94.80800781 10.89199219 95.38164063 10.29101562 95.97265625 C9.67935547 96.55917969 9.06769531 97.14570312 8.4375 97.75 C7.82197266 98.35199219 7.20644531 98.95398438 6.57226562 99.57421875 C5.05485187 101.05634381 3.52829404 102.5290967 2 104 C-1.74184754 102.4402101 -4.10902778 100.13267827 -6.95214844 97.27490234 C-7.4306575 96.79668533 -7.90916656 96.31846832 -8.4021759 95.82575989 C-9.97603195 94.25051517 -11.54269293 92.66831465 -13.109375 91.0859375 C-14.20181286 89.98976787 -15.29469434 88.89404019 -16.38800049 87.79873657 C-19.25951242 84.91960112 -22.12496654 82.03450944 -24.98919678 79.14813232 C-27.91494126 76.20190185 -30.84638014 73.26134931 -33.77734375 70.3203125 C-39.52381482 64.55241412 -45.26389806 58.77821036 -51 53 C-49.4402101 49.25815246 -47.13267827 46.89097222 -44.27490234 44.04785156 C-43.79668533 43.5693425 -43.31846832 43.09083344 -42.82575989 42.5978241 C-41.25051517 41.02396805 -39.66831465 39.45730707 -38.0859375 37.890625 C-36.98976787 36.79818714 -35.89404019 35.70530566 -34.79873657 34.61199951 C-31.91960112 31.74048758 -29.03450944 28.87503346 -26.14813232 26.01080322 C-23.20190185 23.08505874 -20.26134931 20.15361986 -17.3203125 17.22265625 C-11.55241412 11.47618518 -5.77821036 5.73610194 0 0 Z " fill="#AFBA7A" transform="translate(389,502)"/>
<path d="M0 0 C4.20119584 2.03441228 7.01334593 4.61106821 10.3125 7.875 C10.87517578 8.40480469 11.43785156 8.93460937 12.01757812 9.48046875 C13.61328125 11.0546875 13.61328125 11.0546875 16 14 C15.73619415 17.47910718 14.18504459 19.18231752 11.76538086 21.57519531 C11.08475082 22.25559875 10.40412079 22.9360022 9.7028656 23.63702393 C8.96431839 24.36008728 8.22577118 25.08315063 7.46484375 25.828125 C6.71159317 26.57713074 5.95834259 27.32613647 5.18226624 28.09783936 C2.77428956 30.48902044 0.35609255 32.86956165 -2.0625 35.25 C-3.69664738 36.86910177 -5.33011955 38.48888532 -6.96289062 40.109375 C-10.96745846 44.08086182 -14.98046807 48.0436621 -19 52 C-14.88670129 56.90473901 -10.61457539 61.5219528 -6.0703125 66.02734375 C-5.11751907 66.97801476 -5.11751907 66.97801476 -4.14547729 67.94789124 C-2.14101284 69.94681406 -0.13307786 71.94220784 1.875 73.9375 C3.24502389 75.30250133 4.61481774 76.6677336 5.984375 78.03320312 C9.32026543 81.35814211 12.65927036 84.67992353 16 88 C14.71825282 90.81878012 13.38992385 92.85241496 11.1796875 95.015625 C10.64472656 95.54414063 10.10976563 96.07265625 9.55859375 96.6171875 C9.00300781 97.15601563 8.44742188 97.69484375 7.875 98.25 C7.31167969 98.80429687 6.74835938 99.35859375 6.16796875 99.9296875 C4.78313972 101.29104485 3.39216796 102.64614859 2 104 C-1.74184754 102.4402101 -4.10902778 100.13267827 -6.95214844 97.27490234 C-7.4306575 96.79668533 -7.90916656 96.31846832 -8.4021759 95.82575989 C-9.97603195 94.25051517 -11.54269293 92.66831465 -13.109375 91.0859375 C-14.20181286 89.98976787 -15.29469434 88.89404019 -16.38800049 87.79873657 C-19.25951242 84.91960112 -22.12496654 82.03450944 -24.98919678 79.14813232 C-27.91494126 76.20190185 -30.84638014 73.26134931 -33.77734375 70.3203125 C-39.52381482 64.55241412 -45.26389806 58.77821036 -51 53 C-49.4402101 49.25815246 -47.13267827 46.89097222 -44.27490234 44.04785156 C-43.79668533 43.5693425 -43.31846832 43.09083344 -42.82575989 42.5978241 C-41.25051517 41.02396805 -39.66831465 39.45730707 -38.0859375 37.890625 C-36.98976787 36.79818714 -35.89404019 35.70530566 -34.79873657 34.61199951 C-31.91960112 31.74048758 -29.03450944 28.87503346 -26.14813232 26.01080322 C-23.20190185 23.08505874 -20.26134931 20.15361986 -17.3203125 17.22265625 C-11.55241412 11.47618518 -5.77821036 5.73610194 0 0 Z " fill="#D2D966" transform="translate(389,339)"/>
<path d="M0 0 C3.74184754 1.5597899 6.10902778 3.86732173 8.95214844 6.72509766 C9.4306575 7.20331467 9.90916656 7.68153168 10.4021759 8.17424011 C11.97603195 9.74948483 13.54269293 11.33168535 15.109375 12.9140625 C16.20181286 14.01023213 17.29469434 15.10595981 18.38800049 16.20126343 C21.25951242 19.08039888 24.12496654 21.96549056 26.98919678 24.85186768 C29.91494126 27.79809815 32.84638014 30.73865069 35.77734375 33.6796875 C41.52381482 39.44758588 47.26389806 45.22178964 53 51 C51.4402101 54.74184754 49.13267827 57.10902778 46.27490234 59.95214844 C45.79668533 60.4306575 45.31846832 60.90916656 44.82575989 61.4021759 C43.25051517 62.97603195 41.66831465 64.54269293 40.0859375 66.109375 C38.98976787 67.20181286 37.89404019 68.29469434 36.79873657 69.38800049 C33.91960112 72.25951242 31.03450944 75.12496654 28.14813232 77.98919678 C25.20190185 80.91494126 22.26134931 83.84638014 19.3203125 86.77734375 C13.55241412 92.52381482 7.77821036 98.26389806 2 104 C-0.79570164 102.65272739 -2.83967803 101.40293767 -5.015625 99.1796875 C-5.80839844 98.37724609 -5.80839844 98.37724609 -6.6171875 97.55859375 C-7.15601563 97.00300781 -7.69484375 96.44742188 -8.25 95.875 C-8.80429687 95.31167969 -9.35859375 94.74835938 -9.9296875 94.16796875 C-11.29104485 92.78313972 -12.64614859 91.39216796 -14 90 C-12.63886987 86.95418514 -11.10669904 84.86160974 -8.74365234 82.51660156 C-7.75285172 81.52602753 -7.75285172 81.52602753 -6.74203491 80.51544189 C-6.03052277 79.81425232 -5.31901062 79.11306274 -4.5859375 78.390625 C-3.85629791 77.66381531 -3.12665833 76.93700562 -2.37490845 76.18817139 C-0.0462612 73.87070802 2.28924826 71.5603005 4.625 69.25 C6.20618653 67.67884556 7.78692125 66.10723629 9.3671875 64.53515625 C13.2395669 60.68481347 17.11760171 56.84023883 21 53 C16.90173716 48.09495872 12.63068778 43.55085795 8.03515625 39.11328125 C6.72793518 37.83327481 5.42131111 36.55265844 4.11523438 35.27148438 C2.07760177 33.27734762 0.0364773 31.28738255 -2.01489258 29.30737305 C-4.00959328 27.37894933 -5.98827086 25.43525769 -7.96484375 23.48828125 C-8.89586159 22.60067863 -8.89586159 22.60067863 -9.84568787 21.69514465 C-11.54663086 20.00512695 -11.54663086 20.00512695 -14 17 C-13.57624996 13.66600029 -12.4436898 12.08125223 -10.05859375 9.765625 C-9.18364258 8.90517578 -9.18364258 8.90517578 -8.29101562 8.02734375 C-7.67935547 7.44082031 -7.06769531 6.85429687 -6.4375 6.25 C-5.82197266 5.64800781 -5.20644531 5.04601562 -4.57226562 4.42578125 C-3.05485187 2.94365619 -1.52829404 1.4709033 0 0 Z " fill="#ECEFD3" transform="translate(605,258)"/>
<path d="M0 0 C6.1671726 5.11845635 11.86906082 10.65373332 17.5625 16.2890625 C18.05379395 16.77503277 18.54508789 17.26100304 19.05126953 17.76169968 C21.6403707 20.32428952 24.22593586 22.89039275 26.80908203 25.45898438 C28.94383761 27.58030197 31.08567127 29.6940732 33.23388672 31.80175781 C35.8400819 34.35881267 38.43395277 36.9277618 41.01925659 39.50593185 C42.00386563 40.48381649 42.99273382 41.45743186 43.98587036 42.42665482 C45.36674948 43.77609965 46.73071054 45.14279204 48.09375 46.51025391 C48.87427734 47.2826944 49.65480469 48.05513489 50.45898438 48.85098267 C52 51 52 51 52.03236389 52.97109985 C50.58342444 55.81869409 48.65698875 57.70099327 46.38842773 59.95214844 C45.67132126 60.66991203 45.67132126 60.66991203 44.93972778 61.4021759 C43.36135786 62.97845961 41.77263658 64.54385729 40.18359375 66.109375 C39.08577794 67.20159428 37.9886236 68.29447879 36.8921051 69.38800049 C34.00691268 72.26174873 31.1128243 75.12637336 28.21679688 77.98919678 C25.26215704 80.91312669 22.31601101 83.84558726 19.36914062 86.77734375 C13.58771064 92.52661709 7.79685575 98.26628064 2 104 C-0.90619135 102.60403514 -2.97121766 101.26935799 -5.234375 98.9609375 C-5.80800781 98.38085938 -6.38164062 97.80078125 -6.97265625 97.203125 C-7.55917969 96.59984375 -8.14570313 95.9965625 -8.75 95.375 C-9.35199219 94.76398438 -9.95398438 94.15296875 -10.57421875 93.5234375 C-12.05405305 92.02011376 -13.52764676 90.51065144 -15 89 C-10.88670129 84.09526099 -6.61457539 79.4780472 -2.0703125 74.97265625 C-1.11751907 74.02198524 -1.11751907 74.02198524 -0.14547729 73.05210876 C1.85898716 71.05318594 3.86692214 69.05779216 5.875 67.0625 C7.24502389 65.69749867 8.61481774 64.3322664 9.984375 62.96679688 C13.32026543 59.64185789 16.65927036 56.32007647 20 53 C18.63886987 49.95418514 17.10669904 47.86160974 14.74365234 45.51660156 C14.08311859 44.85621887 13.42258484 44.19583618 12.74203491 43.51544189 C12.03052277 42.81425232 11.31901062 42.11306274 10.5859375 41.390625 C9.85629791 40.66381531 9.12665833 39.93700562 8.37490845 39.18817139 C6.0462612 36.87070802 3.71075174 34.5603005 1.375 32.25 C-0.20618653 30.67884556 -1.78692125 29.10723629 -3.3671875 27.53515625 C-7.2395669 23.68481347 -11.11760171 19.84023883 -15 16 C-14.0542569 14.88771028 -13.107228 13.77651377 -12.15966797 12.66577148 C-11.63243134 12.04685532 -11.1051947 11.42793915 -10.5619812 10.79026794 C-8.51461082 8.4436702 -6.34333058 6.24721951 -4.125 4.0625 C-3.34382813 3.29035156 -2.56265625 2.51820313 -1.7578125 1.72265625 C-1.17773438 1.15417969 -0.59765625 0.58570313 0 0 Z " fill="#959F87" transform="translate(285,584)"/>
<path d="M0 0 C2.90619135 1.39596486 4.97121766 2.73064201 7.234375 5.0390625 C7.80800781 5.61914062 8.38164062 6.19921875 8.97265625 6.796875 C9.85244141 7.70179688 9.85244141 7.70179688 10.75 8.625 C11.35199219 9.23601562 11.95398438 9.84703125 12.57421875 10.4765625 C14.05405305 11.97988624 15.52764676 13.48934856 17 15 C12.88670129 19.90473901 8.61457539 24.5219528 4.0703125 29.02734375 C3.43511688 29.66112442 2.79992126 30.29490509 2.14547729 30.94789124 C0.14101284 32.94681406 -1.86692214 34.94220784 -3.875 36.9375 C-5.24502389 38.30250133 -6.61481774 39.6677336 -7.984375 41.03320312 C-11.32026543 44.35814211 -14.65927036 47.67992353 -18 51 C-16.63886987 54.04581486 -15.10669904 56.13839026 -12.74365234 58.48339844 C-12.08311859 59.14378113 -11.42258484 59.80416382 -10.74203491 60.48455811 C-10.03052277 61.18574768 -9.31901062 61.88693726 -8.5859375 62.609375 C-7.49147812 63.69958954 -7.49147812 63.69958954 -6.37490845 64.81182861 C-4.0462612 67.12929198 -1.71075174 69.4396995 0.625 71.75 C2.20618653 73.32115444 3.78692125 74.89276371 5.3671875 76.46484375 C9.2395669 80.31518653 13.11760171 84.15976117 17 88 C16.0542569 89.11228972 15.107228 90.22348623 14.15966797 91.33422852 C13.63243134 91.95314468 13.1051947 92.57206085 12.5619812 93.20973206 C10.51461082 95.5563298 8.34333058 97.75278049 6.125 99.9375 C5.34382813 100.70964844 4.56265625 101.48179687 3.7578125 102.27734375 C3.17773438 102.84582031 2.59765625 103.41429687 2 104 C-4.1671726 98.88154365 -9.86906082 93.34626668 -15.5625 87.7109375 C-16.05379395 87.22496723 -16.54508789 86.73899696 -17.05126953 86.23830032 C-19.6403707 83.67571048 -22.22593586 81.10960725 -24.80908203 78.54101562 C-26.94383761 76.41969803 -29.08567127 74.3059268 -31.23388672 72.19824219 C-33.8400819 69.64118733 -36.43395277 67.0722382 -39.01925659 64.49406815 C-40.00386563 63.51618351 -40.99273382 62.54256814 -41.98587036 61.57334518 C-43.36674948 60.22390035 -44.73071054 58.85720796 -46.09375 57.48974609 C-46.87427734 56.7173056 -47.65480469 55.94486511 -48.45898438 55.14901733 C-50 53 -50 53 -50.03236389 51.02890015 C-48.58342444 48.18130591 -46.65698875 46.29900673 -44.38842773 44.04785156 C-43.91035675 43.5693425 -43.43228577 43.09083344 -42.93972778 42.5978241 C-41.36135786 41.02154039 -39.77263658 39.45614271 -38.18359375 37.890625 C-37.08577794 36.79840572 -35.9886236 35.70552121 -34.8921051 34.61199951 C-32.00691268 31.73825127 -29.1128243 28.87362664 -26.21679688 26.01080322 C-23.26215704 23.08687331 -20.31601101 20.15441274 -17.36914062 17.22265625 C-11.58771064 11.47338291 -5.79685575 5.73371936 0 0 Z " fill="#929B86" transform="translate(225,502)"/>
<path d="M0 0 C4.69167621 2.29770272 8.0537768 4.59932947 11 9 C12.40579502 13.6132317 12.27662189 17.35804401 11 22 C7.20092681 27.93217516 1.64407392 32.57854722 -3.5 37.3125 C-4.90008919 38.64729922 -6.29725901 39.98516771 -7.69140625 41.32617188 C-11.09490066 44.58721805 -14.53545583 47.80393894 -18 51 C-16.39030628 55.25419056 -13.17318325 57.85350455 -9.8984375 60.83984375 C-8.67282101 61.99629207 -7.44891522 63.15455558 -6.2265625 64.31445312 C-4.30789631 66.12856719 -2.3826992 67.93052501 -0.42578125 69.70336914 C10.29655943 79.45651244 10.29655943 79.45651244 11.99316406 85.59106445 C12.17450811 90.64406629 11.66791437 93.90138688 9.03125 98.23828125 C7.77828125 99.26501953 7.77828125 99.26501953 6.5 100.3125 C5.6646875 101.03050781 4.829375 101.74851562 3.96875 102.48828125 C2.99421875 103.23658203 2.99421875 103.23658203 2 104 C-1.74184754 102.4402101 -4.10902778 100.13267827 -6.95214844 97.27490234 C-7.4306575 96.79668533 -7.90916656 96.31846832 -8.4021759 95.82575989 C-9.97603195 94.25051517 -11.54269293 92.66831465 -13.109375 91.0859375 C-14.20181286 89.98976787 -15.29469434 88.89404019 -16.38800049 87.79873657 C-19.25951242 84.91960112 -22.12496654 82.03450944 -24.98919678 79.14813232 C-27.91494126 76.20190185 -30.84638014 73.26134931 -33.77734375 70.3203125 C-39.52381482 64.55241412 -45.26389806 58.77821036 -51 53 C-49.4402101 49.25815246 -47.13267827 46.89097222 -44.27490234 44.04785156 C-43.79668533 43.5693425 -43.31846832 43.09083344 -42.82575989 42.5978241 C-41.25051517 41.02396805 -39.66831465 39.45730707 -38.0859375 37.890625 C-36.98976787 36.79818714 -35.89404019 35.70530566 -34.79873657 34.61199951 C-31.91960112 31.74048758 -29.03450944 28.87503346 -26.14813232 26.01080322 C-23.20190185 23.08505874 -20.26134931 20.15361986 -17.3203125 17.22265625 C-11.55241412 11.47618518 -5.77821036 5.73610194 0 0 Z " fill="#E8ECC8" transform="translate(716,339)"/>
<path d="M0 0 C3.06177439 1.21938055 4.81799957 3.10311362 7.15791321 5.42024231 C7.63802856 5.89188812 8.11814392 6.36353394 8.61280823 6.84947205 C10.19457147 8.40787015 11.76492092 9.9771922 13.33442688 11.54792786 C14.42940338 12.63580452 15.52467838 13.72338079 16.62023926 14.81066895 C18.91259572 17.08958317 21.19893047 19.37434638 23.48164368 21.66291809 C26.41173827 24.59892054 29.35969964 27.51623194 32.31285572 30.42901325 C34.57851409 32.66886636 36.83264744 34.92004381 39.08360863 37.17465782 C40.16616949 38.25552194 41.25273407 39.33239106 42.34328651 40.40519142 C43.86397247 41.90382057 45.36803106 43.41737926 46.86885071 44.93586731 C47.72948624 45.79444839 48.59012177 46.65302948 49.47683716 47.53762817 C51.18989563 49.87214661 51.18989563 49.87214661 51.24421692 51.87016296 C49.77150404 54.66660378 47.86692699 56.59315685 45.64179993 58.84016418 C45.17015411 59.32027954 44.6985083 59.8003949 44.21257019 60.2950592 C42.65417209 61.87682245 41.08485004 63.4471719 39.51411438 65.01667786 C38.42623772 66.11165435 37.33866144 67.20692936 36.25137329 68.30249023 C33.97245906 70.59484669 31.68769585 72.88118145 29.39912415 75.16389465 C26.4631217 78.09398924 23.5458103 81.04195061 20.63302898 83.9951067 C18.39317588 86.26076507 16.14199842 88.51489842 13.88738441 90.7658596 C12.8065203 91.84842046 11.72965118 92.93498505 10.65685081 94.02553749 C9.15822167 95.54622345 7.64466297 97.05028203 6.12617493 98.55110168 C5.26759384 99.41173721 4.40901276 100.27237274 3.52441406 101.15908813 C1.18989563 102.87214661 1.18989563 102.87214661 -1.01565552 102.72389221 C-3.12110701 101.72452739 -4.42116845 100.60275061 -6.04447937 98.93074036 C-6.90492859 98.05578918 -6.90492859 98.05578918 -7.78276062 97.16316223 C-8.36928406 96.55150208 -8.9558075 95.93984192 -9.56010437 95.30964661 C-10.46309265 94.38635559 -10.46309265 94.38635559 -11.38432312 93.44441223 C-12.86644818 91.92699848 -14.33920107 90.40044064 -15.81010437 88.87214661 C-11.63232672 83.88621786 -7.2788316 79.20510376 -2.66166687 74.62605286 C-1.67557938 73.64208778 -1.67557938 73.64208778 -0.66957092 72.63824463 C1.40622425 70.56799393 3.4854899 68.5012701 5.56489563 66.43464661 C6.98309643 65.02146799 8.40106739 63.60805867 9.81880188 62.19441223 C13.2731834 58.75098596 16.73067933 55.31071561 20.18989563 51.87214661 C16.01211798 46.88621786 11.65862286 42.20510376 7.04145813 37.62605286 C6.38406647 36.97007614 5.7266748 36.31409943 5.04936218 35.63824463 C2.97356701 33.56799393 0.89430136 31.5012701 -1.18510437 29.43464661 C-2.60330517 28.02146799 -4.02127613 26.60805867 -5.43901062 25.19441223 C-8.89339214 21.75098596 -12.35088807 18.31071561 -15.81010437 14.87214661 C-14.85612881 13.75666521 -13.90179498 12.64149021 -12.9473114 11.52644348 C-12.41590546 10.90539734 -11.88449951 10.2843512 -11.33699036 9.64448547 C-9.49694166 7.50864177 -7.62690966 5.41615218 -5.68510437 3.37214661 C-5.04315125 2.68120911 -4.40119812 1.99027161 -3.73979187 1.27839661 C-1.81010437 -0.12785339 -1.81010437 -0.12785339 0 0 Z " fill="#B3BC73" transform="translate(285.8101043701172,421.1278533935547)"/>
<path d="M0 0 C6.20347387 5.12541978 11.85684676 10.7276906 17.52734375 16.4296875 C18.52603017 17.43024286 19.52494047 18.43057481 20.52406311 19.43069458 C23.13191964 22.0423388 25.73675695 24.65697367 28.34094238 27.27227783 C31.00735236 29.94898323 33.67665464 32.62280102 36.34570312 35.296875 C41.56661101 40.52845398 46.78432751 45.76320096 52 51 C50.4402101 54.74184754 48.13267827 57.10902778 45.27490234 59.95214844 C44.79668533 60.4306575 44.31846832 60.90916656 43.82575989 61.4021759 C42.25051517 62.97603195 40.66831465 64.54269293 39.0859375 66.109375 C37.98976787 67.20181286 36.89404019 68.29469434 35.79873657 69.38800049 C32.91960112 72.25951242 30.03450944 75.12496654 27.14813232 77.98919678 C24.20190185 80.91494126 21.26134931 83.84638014 18.3203125 86.77734375 C12.55241412 92.52381482 6.77821036 98.26389806 1 104 C-1.79570164 102.65272739 -3.83967803 101.40293767 -6.015625 99.1796875 C-6.80839844 98.37724609 -6.80839844 98.37724609 -7.6171875 97.55859375 C-8.15601563 97.00300781 -8.69484375 96.44742188 -9.25 95.875 C-9.80429687 95.31167969 -10.35859375 94.74835938 -10.9296875 94.16796875 C-12.29104485 92.78313972 -13.64614859 91.39216796 -15 90 C-13.63886987 86.95418514 -12.10669904 84.86160974 -9.74365234 82.51660156 C-8.75285172 81.52602753 -8.75285172 81.52602753 -7.74203491 80.51544189 C-7.03052277 79.81425232 -6.31901062 79.11306274 -5.5859375 78.390625 C-4.85629791 77.66381531 -4.12665833 76.93700562 -3.37490845 76.18817139 C-1.0462612 73.87070802 1.28924826 71.5603005 3.625 69.25 C5.20618653 67.67884556 6.78692125 66.10723629 8.3671875 64.53515625 C12.2395669 60.68481347 16.11760171 56.84023883 20 53 C18.63886987 49.95418514 17.10669904 47.86160974 14.74365234 45.51660156 C14.08311859 44.85621887 13.42258484 44.19583618 12.74203491 43.51544189 C12.03052277 42.81425232 11.31901062 42.11306274 10.5859375 41.390625 C9.85629791 40.66381531 9.12665833 39.93700562 8.37490845 39.18817139 C6.0462612 36.87070802 3.71075174 34.5603005 1.375 32.25 C-0.20618653 30.67884556 -1.78692125 29.10723629 -3.3671875 27.53515625 C-7.2395669 23.68481347 -11.11760171 19.84023883 -15 16 C-14.0542569 14.88771028 -13.107228 13.77651377 -12.15966797 12.66577148 C-11.63243134 12.04685532 -11.1051947 11.42793915 -10.5619812 10.79026794 C-8.51461082 8.4436702 -6.34333058 6.24721951 -4.125 4.0625 C-3.34382813 3.29035156 -2.56265625 2.51820313 -1.7578125 1.72265625 C-1.17773438 1.15417969 -0.59765625 0.58570313 0 0 Z " fill="#B8C174" transform="translate(449,584)"/>
<path d="M0 0 C2.79570164 1.34727261 4.83967803 2.59706233 7.015625 4.8203125 C7.54414062 5.35527344 8.07265625 5.89023437 8.6171875 6.44140625 C9.15601563 6.99699219 9.69484375 7.55257813 10.25 8.125 C11.08144531 8.96998047 11.08144531 8.96998047 11.9296875 9.83203125 C13.29104485 11.21686028 14.64614859 12.60783204 16 14 C14.63886987 17.04581486 13.10669904 19.13839026 10.74365234 21.48339844 C10.08311859 22.14378113 9.42258484 22.80416382 8.74203491 23.48455811 C8.03052277 24.18574768 7.31901062 24.88693726 6.5859375 25.609375 C5.85629791 26.33618469 5.12665833 27.06299438 4.37490845 27.81182861 C2.0462612 30.12929198 -0.28924826 32.4396995 -2.625 34.75 C-4.20618653 36.32115444 -5.78692125 37.89276371 -7.3671875 39.46484375 C-11.2395669 43.31518653 -15.11760171 47.15976117 -19 51 C-17.63886987 54.04581486 -16.10669904 56.13839026 -13.74365234 58.48339844 C-13.08311859 59.14378113 -12.42258484 59.80416382 -11.74203491 60.48455811 C-11.03052277 61.18574768 -10.31901062 61.88693726 -9.5859375 62.609375 C-8.49147812 63.69958954 -8.49147812 63.69958954 -7.37490845 64.81182861 C-5.0462612 67.12929198 -2.71075174 69.4396995 -0.375 71.75 C1.20618653 73.32115444 2.78692125 74.89276371 4.3671875 76.46484375 C8.2395669 80.31518653 12.11760171 84.15976117 16 88 C15.0542569 89.11228972 14.107228 90.22348623 13.15966797 91.33422852 C12.63243134 91.95314468 12.1051947 92.57206085 11.5619812 93.20973206 C9.51461082 95.5563298 7.34333058 97.75278049 5.125 99.9375 C4.34382812 100.70964844 3.56265625 101.48179687 2.7578125 102.27734375 C2.17773438 102.84582031 1.59765625 103.41429687 1 104 C-5.20347387 98.87458022 -10.85684676 93.2723094 -16.52734375 87.5703125 C-17.52603017 86.56975714 -18.52494047 85.56942519 -19.52406311 84.56930542 C-22.13191964 81.9576612 -24.73675695 79.34302633 -27.34094238 76.72772217 C-30.00735236 74.05101677 -32.67665464 71.37719898 -35.34570312 68.703125 C-40.56661101 63.47154602 -45.78432751 58.23679904 -51 53 C-49.4402101 49.25815246 -47.13267827 46.89097222 -44.27490234 44.04785156 C-43.79668533 43.5693425 -43.31846832 43.09083344 -42.82575989 42.5978241 C-41.25051517 41.02396805 -39.66831465 39.45730707 -38.0859375 37.890625 C-36.98976787 36.79818714 -35.89404019 35.70530566 -34.79873657 34.61199951 C-31.91960112 31.74048758 -29.03450944 28.87503346 -26.14813232 26.01080322 C-23.20190185 23.08505874 -20.26134931 20.15361986 -17.3203125 17.22265625 C-11.55241412 11.47618518 -5.77821036 5.73610194 0 0 Z " fill="#CCD476" transform="translate(553,502)"/>
<path d="M0 0 C6.20347387 5.12541978 11.85684676 10.7276906 17.52734375 16.4296875 C18.52603017 17.43024286 19.52494047 18.43057481 20.52406311 19.43069458 C23.13191964 22.0423388 25.73675695 24.65697367 28.34094238 27.27227783 C31.00735236 29.94898323 33.67665464 32.62280102 36.34570312 35.296875 C41.56661101 40.52845398 46.78432751 45.76320096 52 51 C50.4402101 54.74184754 48.13267827 57.10902778 45.27490234 59.95214844 C44.79668533 60.4306575 44.31846832 60.90916656 43.82575989 61.4021759 C42.25051517 62.97603195 40.66831465 64.54269293 39.0859375 66.109375 C37.98976787 67.20181286 36.89404019 68.29469434 35.79873657 69.38800049 C32.91960112 72.25951242 30.03450944 75.12496654 27.14813232 77.98919678 C24.20190185 80.91494126 21.26134931 83.84638014 18.3203125 86.77734375 C12.55241412 92.52381482 6.77821036 98.26389806 1 104 C-1.79570164 102.65272739 -3.83967803 101.40293767 -6.015625 99.1796875 C-6.80839844 98.37724609 -6.80839844 98.37724609 -7.6171875 97.55859375 C-8.15601563 97.00300781 -8.69484375 96.44742188 -9.25 95.875 C-9.80429687 95.31167969 -10.35859375 94.74835938 -10.9296875 94.16796875 C-12.29104485 92.78313972 -13.64614859 91.39216796 -15 90 C-13.63886987 86.95418514 -12.10669904 84.86160974 -9.74365234 82.51660156 C-8.75285172 81.52602753 -8.75285172 81.52602753 -7.74203491 80.51544189 C-7.03052277 79.81425232 -6.31901062 79.11306274 -5.5859375 78.390625 C-4.85629791 77.66381531 -4.12665833 76.93700562 -3.37490845 76.18817139 C-1.0462612 73.87070802 1.28924826 71.5603005 3.625 69.25 C5.20618653 67.67884556 6.78692125 66.10723629 8.3671875 64.53515625 C12.2395669 60.68481347 16.11760171 56.84023883 20 53 C18.63886987 49.95418514 17.10669904 47.86160974 14.74365234 45.51660156 C14.08311859 44.85621887 13.42258484 44.19583618 12.74203491 43.51544189 C12.03052277 42.81425232 11.31901062 42.11306274 10.5859375 41.390625 C9.85629791 40.66381531 9.12665833 39.93700562 8.37490845 39.18817139 C6.0462612 36.87070802 3.71075174 34.5603005 1.375 32.25 C-0.20618653 30.67884556 -1.78692125 29.10723629 -3.3671875 27.53515625 C-7.2395669 23.68481347 -11.11760171 19.84023883 -15 16 C-14.0542569 14.88771028 -13.107228 13.77651377 -12.15966797 12.66577148 C-11.63243134 12.04685532 -11.1051947 11.42793915 -10.5619812 10.79026794 C-8.51461082 8.4436702 -6.34333058 6.24721951 -4.125 4.0625 C-3.34382813 3.29035156 -2.56265625 2.51820313 -1.7578125 1.72265625 C-1.17773438 1.15417969 -0.59765625 0.58570313 0 0 Z " fill="#E3E686" transform="translate(442,258)"/>
<path d="M0 0 C2.79570164 1.34727261 4.83967803 2.59706233 7.015625 4.8203125 C7.54414062 5.35527344 8.07265625 5.89023438 8.6171875 6.44140625 C9.15601563 6.99699219 9.69484375 7.55257812 10.25 8.125 C11.08144531 8.96998047 11.08144531 8.96998047 11.9296875 9.83203125 C13.29104485 11.21686028 14.64614859 12.60783204 16 14 C14.63886987 17.04581486 13.10669904 19.13839026 10.74365234 21.48339844 C10.08311859 22.14378113 9.42258484 22.80416382 8.74203491 23.48455811 C8.03052277 24.18574768 7.31901062 24.88693726 6.5859375 25.609375 C5.85629791 26.33618469 5.12665833 27.06299438 4.37490845 27.81182861 C2.0462612 30.12929198 -0.28924826 32.4396995 -2.625 34.75 C-4.20618653 36.32115444 -5.78692125 37.89276371 -7.3671875 39.46484375 C-11.2395669 43.31518653 -15.11760171 47.15976117 -19 51 C-17.63886987 54.04581486 -16.10669904 56.13839026 -13.74365234 58.48339844 C-13.08311859 59.14378113 -12.42258484 59.80416382 -11.74203491 60.48455811 C-11.03052277 61.18574768 -10.31901062 61.88693726 -9.5859375 62.609375 C-8.49147812 63.69958954 -8.49147812 63.69958954 -7.37490845 64.81182861 C-5.0462612 67.12929198 -2.71075174 69.4396995 -0.375 71.75 C1.20618653 73.32115444 2.78692125 74.89276371 4.3671875 76.46484375 C8.2395669 80.31518653 12.11760171 84.15976117 16 88 C15.0542569 89.11228972 14.107228 90.22348623 13.15966797 91.33422852 C12.63243134 91.95314468 12.1051947 92.57206085 11.5619812 93.20973206 C9.51461082 95.5563298 7.34333058 97.75278049 5.125 99.9375 C4.34382812 100.70964844 3.56265625 101.48179687 2.7578125 102.27734375 C2.17773438 102.84582031 1.59765625 103.41429687 1 104 C-5.20347387 98.87458022 -10.85684676 93.2723094 -16.52734375 87.5703125 C-17.52603017 86.56975714 -18.52494047 85.56942519 -19.52406311 84.56930542 C-22.13191964 81.9576612 -24.73675695 79.34302633 -27.34094238 76.72772217 C-30.00735236 74.05101677 -32.67665464 71.37719898 -35.34570312 68.703125 C-40.56661101 63.47154602 -45.78432751 58.23679904 -51 53 C-49.4402101 49.25815246 -47.13267827 46.89097222 -44.27490234 44.04785156 C-43.79668533 43.5693425 -43.31846832 43.09083344 -42.82575989 42.5978241 C-41.25051517 41.02396805 -39.66831465 39.45730707 -38.0859375 37.890625 C-36.98976787 36.79818714 -35.89404019 35.70530566 -34.79873657 34.61199951 C-31.91960112 31.74048758 -29.03450944 28.87503346 -26.14813232 26.01080322 C-23.20190185 23.08505874 -20.26134931 20.15361986 -17.3203125 17.22265625 C-11.55241412 11.47618518 -5.77821036 5.73610194 0 0 Z " fill="#EDEDB9" transform="translate(546,176)"/>
<path d="M0 0 C2.79570164 1.34727261 4.83967803 2.59706233 7.015625 4.8203125 C7.54414062 5.35527344 8.07265625 5.89023438 8.6171875 6.44140625 C9.15601563 6.99699219 9.69484375 7.55257812 10.25 8.125 C11.08144531 8.96998047 11.08144531 8.96998047 11.9296875 9.83203125 C13.29104485 11.21686028 14.64614859 12.60783204 16 14 C14.63886987 17.04581486 13.10669904 19.13839026 10.74365234 21.48339844 C10.08311859 22.14378113 9.42258484 22.80416382 8.74203491 23.48455811 C8.03052277 24.18574768 7.31901062 24.88693726 6.5859375 25.609375 C5.85629791 26.33618469 5.12665833 27.06299438 4.37490845 27.81182861 C2.0462612 30.12929198 -0.28924826 32.4396995 -2.625 34.75 C-4.20618653 36.32115444 -5.78692125 37.89276371 -7.3671875 39.46484375 C-11.2395669 43.31518653 -15.11760171 47.15976117 -19 51 C-14.90173716 55.90504128 -10.63068778 60.44914205 -6.03515625 64.88671875 C-4.72793518 66.16672519 -3.42131111 67.44734156 -2.11523438 68.72851562 C-0.07760177 70.72265238 1.9635227 72.71261745 4.01489258 74.69262695 C6.00959328 76.62105067 7.98827086 78.56474231 9.96484375 80.51171875 C10.89586159 81.39932137 10.89586159 81.39932137 11.84568787 82.30485535 C13.54663086 83.99487305 13.54663086 83.99487305 16 87 C15.57624996 90.33399971 14.4436898 91.91874777 12.05859375 94.234375 C11.47529297 94.80800781 10.89199219 95.38164062 10.29101562 95.97265625 C9.67935547 96.55917969 9.06769531 97.14570313 8.4375 97.75 C7.82197266 98.35199219 7.20644531 98.95398438 6.57226562 99.57421875 C5.05485187 101.05634381 3.52829404 102.5290967 2 104 C-4.1671726 98.88154365 -9.86906082 93.34626668 -15.5625 87.7109375 C-16.05379395 87.22496723 -16.54508789 86.73899696 -17.05126953 86.23830032 C-19.6403707 83.67571048 -22.22593586 81.10960725 -24.80908203 78.54101562 C-26.94383761 76.41969803 -29.08567127 74.3059268 -31.23388672 72.19824219 C-33.8400819 69.64118733 -36.43395277 67.0722382 -39.01925659 64.49406815 C-40.00386563 63.51618351 -40.99273382 62.54256814 -41.98587036 61.57334518 C-43.36674948 60.22390035 -44.73071054 58.85720796 -46.09375 57.48974609 C-46.87427734 56.7173056 -47.65480469 55.94486511 -48.45898438 55.14901733 C-50 53 -50 53 -50.03236389 51.02890015 C-48.58342444 48.18130591 -46.65698875 46.29900673 -44.38842773 44.04785156 C-43.91035675 43.5693425 -43.43228577 43.09083344 -42.93972778 42.5978241 C-41.36135786 41.02154039 -39.77263658 39.45614271 -38.18359375 37.890625 C-37.08577794 36.79840572 -35.9886236 35.70552121 -34.8921051 34.61199951 C-32.00691268 31.73825127 -29.1128243 28.87362664 -26.21679688 26.01080322 C-23.26215704 23.08687331 -20.31601101 20.15441274 -17.36914062 17.22265625 C-11.58771064 11.47338291 -5.79685575 5.73371936 0 0 Z " fill="#F4F3F3" transform="translate(709,176)"/>
<path d="M0 0 C1.11228972 0.9457431 2.22348623 1.892772 3.33422852 2.84033203 C3.95314468 3.36756866 4.57206085 3.8948053 5.20973206 4.4380188 C7.5563298 6.48538918 9.75278049 8.65666942 11.9375 10.875 C12.70964844 11.65617187 13.48179687 12.43734375 14.27734375 13.2421875 C14.84582031 13.82226562 15.41429687 14.40234375 16 15 C11.88670129 19.90473901 7.61457539 24.5219528 3.0703125 29.02734375 C2.43511688 29.66112442 1.79992126 30.29490509 1.14547729 30.94789124 C-0.85898716 32.94681406 -2.86692214 34.94220784 -4.875 36.9375 C-6.24502389 38.30250133 -7.61481774 39.6677336 -8.984375 41.03320312 C-12.32026543 44.35814211 -15.65927036 47.67992353 -19 51 C-17.63886987 54.04581486 -16.10669904 56.13839026 -13.74365234 58.48339844 C-13.08311859 59.14378113 -12.42258484 59.80416382 -11.74203491 60.48455811 C-11.03052277 61.18574768 -10.31901062 61.88693726 -9.5859375 62.609375 C-8.49147812 63.69958954 -8.49147812 63.69958954 -7.37490845 64.81182861 C-5.0462612 67.12929198 -2.71075174 69.4396995 -0.375 71.75 C1.20618653 73.32115444 2.78692125 74.89276371 4.3671875 76.46484375 C8.2395669 80.31518653 12.11760171 84.15976117 16 88 C15.0542569 89.11228972 14.107228 90.22348623 13.15966797 91.33422852 C12.63243134 91.95314468 12.1051947 92.57206085 11.5619812 93.20973206 C9.51461082 95.5563298 7.34333058 97.75278049 5.125 99.9375 C4.34382812 100.70964844 3.56265625 101.48179687 2.7578125 102.27734375 C2.17773438 102.84582031 1.59765625 103.41429687 1 104 C-5.20347387 98.87458022 -10.85684676 93.2723094 -16.52734375 87.5703125 C-17.52603017 86.56975714 -18.52494047 85.56942519 -19.52406311 84.56930542 C-22.13191964 81.9576612 -24.73675695 79.34302633 -27.34094238 76.72772217 C-30.00735236 74.05101677 -32.67665464 71.37719898 -35.34570312 68.703125 C-40.56661101 63.47154602 -45.78432751 58.23679904 -51 53 C-49.4402101 49.25815246 -47.13267827 46.89097222 -44.27490234 44.04785156 C-43.79668533 43.5693425 -43.31846832 43.09083344 -42.82575989 42.5978241 C-41.25051517 41.02396805 -39.66831465 39.45730707 -38.0859375 37.890625 C-36.98976787 36.79818714 -35.89404019 35.70530566 -34.79873657 34.61199951 C-31.91960112 31.74048758 -29.03450944 28.87503346 -26.14813232 26.01080322 C-23.20190185 23.08505874 -20.26134931 20.15361986 -17.3203125 17.22265625 C-11.55241412 11.47618518 -5.77821036 5.73610194 0 0 Z " fill="#E0E59C" transform="translate(553,339)"/>
<path d="M0 0 C3.74184754 1.5597899 6.10902778 3.86732173 8.95214844 6.72509766 C9.4306575 7.20331467 9.90916656 7.68153168 10.4021759 8.17424011 C11.97603195 9.74948483 13.54269293 11.33168535 15.109375 12.9140625 C16.20181286 14.01023213 17.29469434 15.10595981 18.38800049 16.20126343 C21.25951242 19.08039888 24.12496654 21.96549056 26.98919678 24.85186768 C29.91494126 27.79809815 32.84638014 30.73865069 35.77734375 33.6796875 C41.52381482 39.44758588 47.26389806 45.22178964 53 51 C47.87458022 57.20347387 42.2723094 62.85684676 36.5703125 68.52734375 C35.56975714 69.52603017 34.56942519 70.52494047 33.56930542 71.52406311 C30.9576612 74.13191964 28.34302633 76.73675695 25.72772217 79.34094238 C23.05101677 82.00735236 20.37719898 84.67665464 17.703125 87.34570312 C12.47154602 92.56661101 7.23679904 97.78432751 2 103 C-0.79570164 101.65272739 -2.83967803 100.40293767 -5.015625 98.1796875 C-5.80839844 97.37724609 -5.80839844 97.37724609 -6.6171875 96.55859375 C-7.15601563 96.00300781 -7.69484375 95.44742188 -8.25 94.875 C-8.80429687 94.31167969 -9.35859375 93.74835938 -9.9296875 93.16796875 C-11.29104485 91.78313972 -12.64614859 90.39216796 -14 89 C-12.63886987 85.95418514 -11.10669904 83.86160974 -8.74365234 81.51660156 C-7.75285172 80.52602753 -7.75285172 80.52602753 -6.74203491 79.51544189 C-6.03052277 78.81425232 -5.31901062 78.11306274 -4.5859375 77.390625 C-3.85629791 76.66381531 -3.12665833 75.93700562 -2.37490845 75.18817139 C-0.0462612 72.87070802 2.28924826 70.5603005 4.625 68.25 C6.20618653 66.67884556 7.78692125 65.10723629 9.3671875 63.53515625 C13.2395669 59.68481347 17.11760171 55.84023883 21 52 C16.88670129 47.09526099 12.61457539 42.4780472 8.0703125 37.97265625 C7.43511688 37.33887558 6.79992126 36.70509491 6.14547729 36.05210876 C4.14101284 34.05318594 2.13307786 32.05779216 0.125 30.0625 C-1.24502389 28.69749867 -2.61481774 27.3322664 -3.984375 25.96679688 C-7.32026543 22.64185789 -10.65927036 19.32007647 -14 16 C-12.71825282 13.18121988 -11.38992385 11.14758504 -9.1796875 8.984375 C-8.64472656 8.45585937 -8.10976563 7.92734375 -7.55859375 7.3828125 C-7.00300781 6.84398437 -6.44742188 6.30515625 -5.875 5.75 C-5.31167969 5.19570313 -4.74835937 4.64140625 -4.16796875 4.0703125 C-2.78313972 2.70895515 -1.39216796 1.35385141 0 0 Z " fill="#DDE397" transform="translate(612,421)"/>
<path d="M0 0 C3.74184754 1.5597899 6.10902778 3.86732173 8.95214844 6.72509766 C9.4306575 7.20331467 9.90916656 7.68153168 10.4021759 8.17424011 C11.97603195 9.74948483 13.54269293 11.33168535 15.109375 12.9140625 C16.20181286 14.01023213 17.29469434 15.10595981 18.38800049 16.20126343 C21.25951242 19.08039888 24.12496654 21.96549056 26.98919678 24.85186768 C29.91494126 27.79809815 32.84638014 30.73865069 35.77734375 33.6796875 C41.52381482 39.44758588 47.26389806 45.22178964 53 51 C47.87458022 57.20347387 42.2723094 62.85684676 36.5703125 68.52734375 C35.56975714 69.52603017 34.56942519 70.52494047 33.56930542 71.52406311 C30.9576612 74.13191964 28.34302633 76.73675695 25.72772217 79.34094238 C23.05101677 82.00735236 20.37719898 84.67665464 17.703125 87.34570312 C12.47154602 92.56661101 7.23679904 97.78432751 2 103 C-0.79570164 101.65272739 -2.83967803 100.40293767 -5.015625 98.1796875 C-5.80839844 97.37724609 -5.80839844 97.37724609 -6.6171875 96.55859375 C-7.15601563 96.00300781 -7.69484375 95.44742188 -8.25 94.875 C-8.80429687 94.31167969 -9.35859375 93.74835938 -9.9296875 93.16796875 C-11.29104485 91.78313972 -12.64614859 90.39216796 -14 89 C-12.63886987 85.95418514 -11.10669904 83.86160974 -8.74365234 81.51660156 C-7.75285172 80.52602753 -7.75285172 80.52602753 -6.74203491 79.51544189 C-6.03052277 78.81425232 -5.31901062 78.11306274 -4.5859375 77.390625 C-3.85629791 76.66381531 -3.12665833 75.93700562 -2.37490845 75.18817139 C-0.0462612 72.87070802 2.28924826 70.5603005 4.625 68.25 C6.20618653 66.67884556 7.78692125 65.10723629 9.3671875 63.53515625 C13.2395669 59.68481347 17.11760171 55.84023883 21 52 C16.88670129 47.09526099 12.61457539 42.4780472 8.0703125 37.97265625 C7.43511688 37.33887558 6.79992126 36.70509491 6.14547729 36.05210876 C4.14101284 34.05318594 2.13307786 32.05779216 0.125 30.0625 C-1.24502389 28.69749867 -2.61481774 27.3322664 -3.984375 25.96679688 C-7.32026543 22.64185789 -10.65927036 19.32007647 -14 16 C-12.71825282 13.18121988 -11.38992385 11.14758504 -9.1796875 8.984375 C-8.64472656 8.45585938 -8.10976563 7.92734375 -7.55859375 7.3828125 C-7.00300781 6.84398438 -6.44742188 6.30515625 -5.875 5.75 C-5.31167969 5.19570312 -4.74835937 4.64140625 -4.16796875 4.0703125 C-2.78313972 2.70895515 -1.39216796 1.35385141 0 0 Z " fill="#F4F3E3" transform="translate(605,95)"/>
<path d="M0 0 C4.69167621 2.29770272 8.0537768 4.59932947 11 9 C12.40579502 13.6132317 12.27662189 17.35804401 11 22 C7.20092681 27.93217516 1.64407392 32.57854722 -3.5 37.3125 C-4.90008919 38.64729922 -6.29725901 39.98516771 -7.69140625 41.32617188 C-11.09490066 44.58721805 -14.53545583 47.80393894 -18 51 C-16.39030628 55.25419056 -13.17318325 57.85350455 -9.8984375 60.83984375 C-8.67282101 61.99629207 -7.44891522 63.15455558 -6.2265625 64.31445312 C-4.30789631 66.12856719 -2.3826992 67.93052501 -0.42578125 69.70336914 C10.29655943 79.45651244 10.29655943 79.45651244 11.99316406 85.59106445 C12.17450811 90.64406629 11.66791437 93.90138688 9.03125 98.23828125 C7.77828125 99.26501953 7.77828125 99.26501953 6.5 100.3125 C5.6646875 101.03050781 4.829375 101.74851562 3.96875 102.48828125 C2.99421875 103.23658203 2.99421875 103.23658203 2 104 C-4.1671726 98.88154365 -9.86906082 93.34626668 -15.5625 87.7109375 C-16.05379395 87.22496723 -16.54508789 86.73899696 -17.05126953 86.23830032 C-19.6403707 83.67571048 -22.22593586 81.10960725 -24.80908203 78.54101562 C-26.94383761 76.41969803 -29.08567127 74.3059268 -31.23388672 72.19824219 C-33.8400819 69.64118733 -36.43395277 67.0722382 -39.01925659 64.49406815 C-40.00386563 63.51618351 -40.99273382 62.54256814 -41.98587036 61.57334518 C-43.36674948 60.22390035 -44.73071054 58.85720796 -46.09375 57.48974609 C-46.87427734 56.7173056 -47.65480469 55.94486511 -48.45898438 55.14901733 C-50 53 -50 53 -50.03236389 51.02890015 C-48.58342444 48.18130591 -46.65698875 46.29900673 -44.38842773 44.04785156 C-43.91035675 43.5693425 -43.43228577 43.09083344 -42.93972778 42.5978241 C-41.36135786 41.02154039 -39.77263658 39.45614271 -38.18359375 37.890625 C-37.08577794 36.79840572 -35.9886236 35.70552121 -34.8921051 34.61199951 C-32.00691268 31.73825127 -29.1128243 28.87362664 -26.21679688 26.01080322 C-23.26215704 23.08687331 -20.31601101 20.15441274 -17.36914062 17.22265625 C-11.58771064 11.47338291 -5.79685575 5.73371936 0 0 Z " fill="#DAE075" transform="translate(716,502)"/>
<path d="M0 0 C3.46983566 24.24817758 3.46983566 24.24817758 -2.06103516 32.43457031 C-7.35958773 39.2267022 -14.1802053 44.80828445 -21 50 C-18.01646215 53.79729393 -15.07075824 57.08629898 -11.1328125 59.91015625 C-5.37661524 64.28627441 -0.70929538 68.24240519 0.68408203 75.62402344 C1.49197138 84.3827016 0.82610248 93.26873226 0 102 C-3.74184754 100.4402101 -6.10902778 98.13267827 -8.95214844 95.27490234 C-9.4306575 94.79668533 -9.90916656 94.31846832 -10.4021759 93.82575989 C-11.97603195 92.25051517 -13.54269293 90.66831465 -15.109375 89.0859375 C-16.20181286 87.98976787 -17.29469434 86.89404019 -18.38800049 85.79873657 C-21.25951242 82.91960112 -24.12496654 80.03450944 -26.98919678 77.14813232 C-29.91494126 74.20190185 -32.84638014 71.26134931 -35.77734375 68.3203125 C-41.52381482 62.55241412 -47.26389806 56.77821036 -53 51 C-47.94568761 44.90575281 -42.47806989 39.30067984 -36.89453125 33.69140625 C-36.41834539 33.21239302 -35.94215954 32.73337978 -35.45154381 32.239851 C-32.94148379 29.71491863 -30.42865663 27.19278128 -27.91333008 24.6730957 C-25.3173283 22.07156376 -22.73076748 19.46084683 -20.14618397 16.84797764 C-18.15151556 14.83473346 -16.15021734 12.8281822 -14.1470089 10.82343864 C-13.18962167 9.86302313 -12.23473809 8.90010513 -11.2824192 7.93466377 C-9.95682468 6.59208391 -8.6208643 5.25976243 -7.28442383 3.92797852 C-6.52752762 3.16743668 -5.77063141 2.40689484 -4.99079895 1.62330627 C-3 0 -3 0 0 0 Z " fill="#FAF4F9" transform="translate(727,9)"/>
<path d="M0 0 C2.11446441 0.99315807 3.40855631 2.11160798 5.03555298 3.78741455 C5.60918579 4.37071533 6.1828186 4.95401611 6.77383423 5.55499268 C7.65361938 6.47248291 7.65361938 6.47248291 8.55117798 7.4085083 C9.15317017 8.02403564 9.75516235 8.63956299 10.37539673 9.27374268 C11.85752179 10.79115643 13.33027468 12.31771426 14.80117798 13.8460083 C8.53956848 27.38737707 -9.7234848 47.13367747 -23.53738403 52.80633545 C-32.90442406 55.37592931 -42.87933594 54.02640892 -52.19882202 51.8460083 C-50.64998668 48.1706258 -48.41783692 45.7941115 -45.6289978 42.9697876 C-44.9359404 42.26424492 -44.9359404 42.26424492 -44.22888184 41.54444885 C-42.70604185 39.9975896 -41.17571851 38.45842617 -39.64413452 36.92022705 C-38.58032737 35.84745213 -37.5165976 34.77460049 -36.45294189 33.70167542 C-34.22562544 31.45789175 -31.99397255 29.21851925 -29.75985718 26.98150635 C-26.89399632 24.11024359 -24.04466573 21.22314862 -21.19899178 18.33189678 C-19.00955635 16.11277746 -16.80901099 13.9049386 -14.60519028 11.7001133 C-13.54930342 10.64001204 -12.49755081 9.57577658 -11.45001602 8.50742149 C-9.98733598 7.01798833 -8.50979796 5.54506476 -7.0274353 4.07525635 C-5.77073532 2.81095039 -5.77073532 2.81095039 -4.48864746 1.52110291 C-2.19882202 -0.1539917 -2.19882202 -0.1539917 0 0 Z " fill="#B9C374" transform="translate(385.1988220214844,649.1539916992188)"/>
<path d="M0 0 C2.79570164 1.34727261 4.83967803 2.59706233 7.015625 4.8203125 C7.54414062 5.35527344 8.07265625 5.89023437 8.6171875 6.44140625 C9.15601563 6.99699219 9.69484375 7.55257812 10.25 8.125 C11.08144531 8.96998047 11.08144531 8.96998047 11.9296875 9.83203125 C13.29104485 11.21686028 14.64614859 12.60783204 16 14 C9.7383905 27.54136877 -8.52466277 47.28766917 -22.33856201 52.96032715 C-31.70560204 55.529921 -41.68051392 54.18040062 -51 52 C-45.87458022 45.79652613 -40.2723094 40.14315324 -34.5703125 34.47265625 C-33.56975714 33.47396983 -32.56942519 32.47505953 -31.56930542 31.47593689 C-28.9576612 28.86808036 -26.34302633 26.26324305 -23.72772217 23.65905762 C-21.05101677 20.99264764 -18.37719898 18.32334536 -15.703125 15.65429688 C-10.47154602 10.43338899 -5.23679904 5.21567249 0 0 Z " fill="#DADE5D" transform="translate(711,649)"/>
<path d="M0 0 C2.79570164 1.34727261 4.83967803 2.59706233 7.015625 4.8203125 C7.54414062 5.35527344 8.07265625 5.89023437 8.6171875 6.44140625 C9.15601563 6.99699219 9.69484375 7.55257812 10.25 8.125 C11.08144531 8.96998047 11.08144531 8.96998047 11.9296875 9.83203125 C13.29104485 11.21686028 14.64614859 12.60783204 16 14 C9.7383905 27.54136877 -8.52466277 47.28766917 -22.33856201 52.96032715 C-31.70560204 55.529921 -41.68051392 54.18040062 -51 52 C-45.87458022 45.79652613 -40.2723094 40.14315324 -34.5703125 34.47265625 C-33.56975714 33.47396983 -32.56942519 32.47505953 -31.56930542 31.47593689 C-28.9576612 28.86808036 -26.34302633 26.26324305 -23.72772217 23.65905762 C-21.05101677 20.99264764 -18.37719898 18.32334536 -15.703125 15.65429688 C-10.47154602 10.43338899 -5.23679904 5.21567249 0 0 Z " fill="#D1D863" transform="translate(547,649)"/>
<path d="M0 0 C2.79570164 1.34727261 4.83967803 2.59706233 7.015625 4.8203125 C7.54414063 5.35527344 8.07265625 5.89023437 8.6171875 6.44140625 C9.15601563 6.99699219 9.69484375 7.55257812 10.25 8.125 C11.08144531 8.96998047 11.08144531 8.96998047 11.9296875 9.83203125 C13.29104485 11.21686028 14.64614859 12.60783204 16 14 C9.7383905 27.54136877 -8.52466277 47.28766917 -22.33856201 52.96032715 C-31.70560204 55.529921 -41.68051392 54.18040062 -51 52 C-45.87458022 45.79652613 -40.2723094 40.14315324 -34.5703125 34.47265625 C-33.56975714 33.47396983 -32.56942519 32.47505953 -31.56930542 31.47593689 C-28.9576612 28.86808036 -26.34302633 26.26324305 -23.72772217 23.65905762 C-21.05101677 20.99264764 -18.37719898 18.32334536 -15.703125 15.65429688 C-10.47154602 10.43338899 -5.23679904 5.21567249 0 0 Z " fill="#97A186" transform="translate(220,649)"/>
<path d="M0 0 C2.79570164 1.34727261 4.83967803 2.59706233 7.015625 4.8203125 C7.54414062 5.35527344 8.07265625 5.89023437 8.6171875 6.44140625 C9.15601563 6.99699219 9.69484375 7.55257812 10.25 8.125 C11.08144531 8.96998047 11.08144531 8.96998047 11.9296875 9.83203125 C13.29104485 11.21686028 14.64614859 12.60783204 16 14 C9.76077452 27.50927144 -8.56270823 47.21270687 -22.29431152 52.96032715 C-31.36998951 55.50958644 -40.9731662 54.1994821 -50 52 C-48.450168 48.29955056 -46.19605329 45.95418913 -43.36669922 43.13964844 C-42.89823578 42.67089294 -42.42977234 42.20213745 -41.94711304 41.71917725 C-40.40433305 40.17778568 -38.85460036 38.64359127 -37.3046875 37.109375 C-36.23093808 36.03935745 -35.15763067 34.96889619 -34.08474731 33.89801025 C-31.26479548 31.08568121 -28.43888846 28.27941111 -25.61169434 25.47436523 C-22.7257863 22.60894477 -19.84555743 19.73782832 -16.96484375 16.8671875 C-11.31543511 11.23920488 -5.65972175 5.61761116 0 0 Z " fill="#81898D" transform="translate(56,649)"/>
</svg>
